<svg xmlns="http://www.w3.org/2000/svg" xmlns:xlink="http://www.w3.org/1999/xlink" width="500" zoomAndPan="magnify" viewBox="0 0 375 374.999991" height="500" preserveAspectRatio="xMidYMid meet" version="1.0"><defs><g/><clipPath id="5485c8d48c"><path d="M 80.058594 148.394531 L 134.808594 148.394531 L 134.808594 218.894531 L 80.058594 218.894531 Z M 80.058594 148.394531 " clip-rule="nonzero"/></clipPath></defs><g clip-path="url(#5485c8d48c)"><path fill="#ff7200" d="M 127.082031 182.640625 L 127.082031 182.636719 L 134.566406 185.5 L 134.566406 208.660156 L 107.316406 219.09375 L 80.0625 208.660156 L 80.0625 180.675781 L 87.550781 183.542969 L 87.550781 203.511719 C 93.300781 205.714844 102.726562 209.320312 107.316406 211.078125 C 107.316406 211.078125 127.082031 203.511719 127.082031 203.511719 L 127.082031 190.65625 L 121.488281 188.515625 L 121.488281 180.5 Z M 87.550781 175.523438 L 87.550781 175.527344 L 80.0625 172.660156 L 80.0625 148.394531 L 134.566406 148.394531 L 134.566406 177.484375 L 127.082031 174.621094 L 127.082031 155.882812 C 127.082031 155.882812 87.550781 155.882812 87.550781 155.882812 L 87.550781 167.503906 L 94.546875 170.183594 L 94.546875 160.851562 L 120.085938 160.851562 L 120.085938 196.046875 L 102.03125 196.046875 L 102.03125 204.101562 L 94.546875 201.238281 L 94.546875 178.199219 Z M 102.03125 171.878906 L 102.03125 188.5625 L 112.601562 188.5625 L 112.601562 168.339844 C 112.601562 168.339844 106.996094 168.339844 102.03125 168.339844 Z M 102.03125 171.878906 " fill-opacity="1" fill-rule="evenodd"/></g><g fill="#ffffff" fill-opacity="1"><g transform="translate(142.11877, 174.495046)"><g><path d="M 1.109375 -7.21875 L 5.484375 -7.65625 C 5.734375 -6.1875 6.257812 -5.101562 7.0625 -4.40625 C 7.875 -3.71875 8.960938 -3.375 10.328125 -3.375 C 11.773438 -3.375 12.863281 -3.675781 13.59375 -4.28125 C 14.320312 -4.894531 14.6875 -5.617188 14.6875 -6.453125 C 14.6875 -6.960938 14.53125 -7.40625 14.21875 -7.78125 C 13.914062 -8.15625 13.378906 -8.472656 12.609375 -8.734375 C 12.078125 -8.921875 10.878906 -9.242188 9.015625 -9.703125 C 6.617188 -10.304688 4.9375 -11.039062 3.96875 -11.90625 C 2.601562 -13.125 1.921875 -14.613281 1.921875 -16.375 C 1.921875 -17.507812 2.238281 -18.566406 2.875 -19.546875 C 3.519531 -20.523438 4.445312 -21.269531 5.65625 -21.78125 C 6.863281 -22.300781 8.316406 -22.5625 10.015625 -22.5625 C 12.804688 -22.5625 14.898438 -21.953125 16.296875 -20.734375 C 17.703125 -19.515625 18.445312 -17.882812 18.53125 -15.84375 L 14.046875 -15.65625 C 13.859375 -16.789062 13.445312 -17.601562 12.8125 -18.09375 C 12.1875 -18.59375 11.242188 -18.84375 9.984375 -18.84375 C 8.679688 -18.84375 7.65625 -18.585938 6.90625 -18.078125 C 6.4375 -17.722656 6.203125 -17.253906 6.203125 -16.671875 C 6.203125 -16.160156 6.425781 -15.71875 6.875 -15.34375 C 7.4375 -14.863281 8.804688 -14.363281 10.984375 -13.84375 C 13.171875 -13.332031 14.785156 -12.800781 15.828125 -12.25 C 16.867188 -11.707031 17.679688 -10.957031 18.265625 -10 C 18.859375 -9.039062 19.15625 -7.859375 19.15625 -6.453125 C 19.15625 -5.191406 18.800781 -4.003906 18.09375 -2.890625 C 17.394531 -1.785156 16.398438 -0.957031 15.109375 -0.40625 C 13.816406 0.132812 12.210938 0.40625 10.296875 0.40625 C 7.484375 0.40625 5.320312 -0.242188 3.8125 -1.546875 C 2.300781 -2.847656 1.398438 -4.738281 1.109375 -7.21875 Z M 1.109375 -7.21875 "/></g></g></g><g fill="#ffffff" fill-opacity="1"><g transform="translate(166.017216, 174.495046)"><g><path d="M 2.234375 -22.203125 L 6.703125 -22.203125 L 6.703125 -10.171875 C 6.703125 -8.265625 6.757812 -7.023438 6.875 -6.453125 C 7.0625 -5.554688 7.515625 -4.828125 8.234375 -4.265625 C 8.960938 -3.710938 9.945312 -3.4375 11.1875 -3.4375 C 12.46875 -3.4375 13.425781 -3.695312 14.0625 -4.21875 C 14.707031 -4.75 15.097656 -5.390625 15.234375 -6.140625 C 15.367188 -6.898438 15.4375 -8.160156 15.4375 -9.921875 L 15.4375 -22.203125 L 19.9375 -22.203125 L 19.9375 -10.546875 C 19.9375 -7.878906 19.8125 -5.988281 19.5625 -4.875 C 19.3125 -3.769531 18.859375 -2.84375 18.203125 -2.09375 C 17.554688 -1.34375 16.691406 -0.742188 15.609375 -0.296875 C 14.523438 0.148438 13.101562 0.375 11.34375 0.375 C 9.21875 0.375 7.601562 0.132812 6.5 -0.34375 C 5.40625 -0.832031 4.539062 -1.46875 3.90625 -2.25 C 3.28125 -3.039062 2.867188 -3.863281 2.671875 -4.71875 C 2.378906 -6 2.234375 -7.878906 2.234375 -10.359375 Z M 2.234375 -22.203125 "/></g></g></g><g fill="#ff7200" fill-opacity="1"><g transform="translate(191.630485, 174.495046)"><g><path d="M 2.203125 0 L 2.203125 -22.203125 L 8.890625 -22.203125 L 12.921875 -7.0625 L 16.890625 -22.203125 L 23.625 -22.203125 L 23.625 0 L 19.46875 0 L 19.46875 -17.453125 L 15.0625 0 L 10.75 0 L 6.359375 -17.453125 L 6.359375 0 Z M 2.203125 0 "/></g></g></g><g fill="#ffffff" fill-opacity="1"><g transform="translate(220.681264, 174.495046)"><g><path d="M 1.328125 -10.96875 C 1.328125 -13.226562 1.671875 -15.117188 2.359375 -16.640625 C 2.867188 -17.785156 3.554688 -18.804688 4.421875 -19.703125 C 5.296875 -20.597656 6.25 -21.265625 7.28125 -21.703125 C 8.664062 -22.273438 10.269531 -22.5625 12.09375 -22.5625 C 15.351562 -22.5625 17.960938 -21.546875 19.921875 -19.515625 C 21.890625 -17.492188 22.875 -14.675781 22.875 -11.0625 C 22.875 -7.488281 21.894531 -4.6875 19.9375 -2.65625 C 17.988281 -0.632812 15.394531 0.375 12.15625 0.375 C 8.84375 0.375 6.207031 -0.628906 4.25 -2.640625 C 2.300781 -4.660156 1.328125 -7.4375 1.328125 -10.96875 Z M 5.953125 -11.09375 C 5.953125 -8.59375 6.535156 -6.691406 7.703125 -5.390625 C 8.867188 -4.085938 10.34375 -3.4375 12.125 -3.4375 C 13.914062 -3.4375 15.378906 -4.082031 16.515625 -5.375 C 17.660156 -6.664062 18.234375 -8.59375 18.234375 -11.15625 C 18.234375 -13.695312 17.671875 -15.59375 16.546875 -16.84375 C 15.429688 -18.09375 13.957031 -18.71875 12.125 -18.71875 C 10.28125 -18.71875 8.789062 -18.085938 7.65625 -16.828125 C 6.519531 -15.566406 5.953125 -13.65625 5.953125 -11.09375 Z M 5.953125 -11.09375 "/></g></g></g><g fill="#ffffff" fill-opacity="1"><g transform="translate(248.020285, 174.495046)"><g><path d="M 2.296875 0 L 2.296875 -22.203125 L 6.671875 -22.203125 L 15.75 -7.375 L 15.75 -22.203125 L 19.90625 -22.203125 L 19.90625 0 L 15.40625 0 L 6.453125 -14.484375 L 6.453125 0 Z M 2.296875 0 "/></g></g></g><g fill="#ffffff" fill-opacity="1"><g transform="translate(83.59864, 237.010108)"><g><path d="M 12.4375 0 L 9.703125 0 L 8.171875 -5.9375 C 8.117188 -6.15625 8.023438 -6.59375 7.890625 -7.25 C 7.753906 -7.914062 7.675781 -8.363281 7.65625 -8.59375 C 7.625 -8.3125 7.546875 -7.863281 7.421875 -7.25 C 7.296875 -6.632812 7.195312 -6.191406 7.125 -5.921875 L 5.609375 0 L 2.890625 0 L 0 -11.3125 L 2.359375 -11.3125 L 3.8125 -5.140625 C 4.0625 -3.992188 4.242188 -3.003906 4.359375 -2.171875 C 4.390625 -2.460938 4.457031 -2.914062 4.5625 -3.53125 C 4.675781 -4.15625 4.78125 -4.632812 4.875 -4.96875 L 6.53125 -11.3125 L 8.796875 -11.3125 L 10.4375 -4.96875 C 10.507812 -4.6875 10.597656 -4.253906 10.703125 -3.671875 C 10.816406 -3.085938 10.90625 -2.585938 10.96875 -2.171875 C 11.019531 -2.578125 11.097656 -3.078125 11.203125 -3.671875 C 11.316406 -4.273438 11.421875 -4.765625 11.515625 -5.140625 L 12.953125 -11.3125 L 15.3125 -11.3125 Z M 12.4375 0 "/></g></g></g><g fill="#ff7200" fill-opacity="1"><g transform="translate(103.520514, 237.010108)"><g><path d="M 7.9375 0 L 1.421875 0 L 1.421875 -11.3125 L 7.9375 -11.3125 L 7.9375 -9.34375 L 3.828125 -9.34375 L 3.828125 -6.859375 L 7.65625 -6.859375 L 7.65625 -4.890625 L 3.828125 -4.890625 L 3.828125 -1.984375 L 7.9375 -1.984375 Z M 7.9375 0 "/></g></g></g><g fill="#ffffff" fill-opacity="1"><g transform="translate(116.997075, 237.010108)"><g><path d="M 1.421875 -11.3125 L 4.9375 -11.3125 C 6.539062 -11.3125 7.703125 -11.082031 8.421875 -10.625 C 9.148438 -10.164062 9.515625 -9.441406 9.515625 -8.453125 C 9.515625 -7.773438 9.359375 -7.21875 9.046875 -6.78125 C 8.734375 -6.351562 8.3125 -6.09375 7.78125 -6 L 7.78125 -5.921875 C 8.5 -5.765625 9.015625 -5.46875 9.328125 -5.03125 C 9.648438 -4.59375 9.8125 -4.007812 9.8125 -3.28125 C 9.8125 -2.25 9.4375 -1.441406 8.6875 -0.859375 C 7.945312 -0.285156 6.9375 0 5.65625 0 L 1.421875 0 Z M 3.828125 -6.828125 L 5.21875 -6.828125 C 5.863281 -6.828125 6.332031 -6.925781 6.625 -7.125 C 6.914062 -7.332031 7.0625 -7.664062 7.0625 -8.125 C 7.0625 -8.5625 6.898438 -8.875 6.578125 -9.0625 C 6.265625 -9.25 5.765625 -9.34375 5.078125 -9.34375 L 3.828125 -9.34375 Z M 3.828125 -4.921875 L 3.828125 -1.984375 L 5.390625 -1.984375 C 6.046875 -1.984375 6.53125 -2.109375 6.84375 -2.359375 C 7.15625 -2.609375 7.3125 -2.992188 7.3125 -3.515625 C 7.3125 -4.453125 6.644531 -4.921875 5.3125 -4.921875 Z M 3.828125 -4.921875 "/></g></g></g><g fill="#ffffff" fill-opacity="1"><g transform="translate(132.238304, 237.010108)"><g/></g></g><g fill="#ffffff" fill-opacity="1"><g transform="translate(140.950176, 237.010108)"><g><path d="M 10.8125 -5.765625 C 10.8125 -3.898438 10.28125 -2.472656 9.21875 -1.484375 C 8.15625 -0.492188 6.625 0 4.625 0 L 1.421875 0 L 1.421875 -11.3125 L 4.96875 -11.3125 C 6.820312 -11.3125 8.257812 -10.820312 9.28125 -9.84375 C 10.300781 -8.875 10.8125 -7.515625 10.8125 -5.765625 Z M 8.3125 -5.703125 C 8.3125 -8.128906 7.238281 -9.34375 5.09375 -9.34375 L 3.828125 -9.34375 L 3.828125 -1.984375 L 4.84375 -1.984375 C 7.15625 -1.984375 8.3125 -3.222656 8.3125 -5.703125 Z M 8.3125 -5.703125 "/></g></g></g><g fill="#ffffff" fill-opacity="1"><g transform="translate(157.274474, 237.010108)"><g><path d="M 7.9375 0 L 1.421875 0 L 1.421875 -11.3125 L 7.9375 -11.3125 L 7.9375 -9.34375 L 3.828125 -9.34375 L 3.828125 -6.859375 L 7.65625 -6.859375 L 7.65625 -4.890625 L 3.828125 -4.890625 L 3.828125 -1.984375 L 7.9375 -1.984375 Z M 7.9375 0 "/></g></g></g><g fill="#ffffff" fill-opacity="1"><g transform="translate(170.744112, 237.010108)"><g><path d="M 7.875 -11.3125 L 10.296875 -11.3125 L 6.453125 0 L 3.84375 0 L 0 -11.3125 L 2.421875 -11.3125 L 4.546875 -4.578125 C 4.671875 -4.179688 4.796875 -3.71875 4.921875 -3.1875 C 5.046875 -2.65625 5.125 -2.289062 5.15625 -2.09375 C 5.207031 -2.5625 5.398438 -3.390625 5.734375 -4.578125 Z M 7.875 -11.3125 "/></g></g></g><g fill="#ffffff" fill-opacity="1"><g transform="translate(185.637212, 237.010108)"><g><path d="M 7.9375 0 L 1.421875 0 L 1.421875 -11.3125 L 7.9375 -11.3125 L 7.9375 -9.34375 L 3.828125 -9.34375 L 3.828125 -6.859375 L 7.65625 -6.859375 L 7.65625 -4.890625 L 3.828125 -4.890625 L 3.828125 -1.984375 L 7.9375 -1.984375 Z M 7.9375 0 "/></g></g></g><g fill="#ff7200" fill-opacity="1"><g transform="translate(199.110351, 237.010108)"><g><path d="M 1.421875 0 L 1.421875 -11.3125 L 3.828125 -11.3125 L 3.828125 -1.984375 L 8.40625 -1.984375 L 8.40625 0 Z M 1.421875 0 "/></g></g></g><g fill="#ffffff" fill-opacity="1"><g transform="translate(212.668944, 237.010108)"><g><path d="M 11.6875 -5.671875 C 11.6875 -3.796875 11.222656 -2.351562 10.296875 -1.34375 C 9.367188 -0.34375 8.039062 0.15625 6.3125 0.15625 C 4.570312 0.15625 3.238281 -0.34375 2.3125 -1.34375 C 1.382812 -2.351562 0.921875 -3.800781 0.921875 -5.6875 C 0.921875 -7.570312 1.382812 -9.007812 2.3125 -10 C 3.25 -10.988281 4.585938 -11.484375 6.328125 -11.484375 C 8.054688 -11.484375 9.378906 -10.984375 10.296875 -9.984375 C 11.222656 -8.984375 11.6875 -7.546875 11.6875 -5.671875 Z M 3.4375 -5.671875 C 3.4375 -4.410156 3.675781 -3.457031 4.15625 -2.8125 C 4.632812 -2.175781 5.351562 -1.859375 6.3125 -1.859375 C 8.21875 -1.859375 9.171875 -3.128906 9.171875 -5.671875 C 9.171875 -8.222656 8.222656 -9.5 6.328125 -9.5 C 5.367188 -9.5 4.644531 -9.175781 4.15625 -8.53125 C 3.675781 -7.882812 3.4375 -6.929688 3.4375 -5.671875 Z M 3.4375 -5.671875 "/></g></g></g><g fill="#ffffff" fill-opacity="1"><g transform="translate(229.875169, 237.010108)"><g><path d="M 3.828125 -5.984375 L 4.609375 -5.984375 C 5.347656 -5.984375 5.898438 -6.128906 6.265625 -6.421875 C 6.628906 -6.710938 6.8125 -7.140625 6.8125 -7.703125 C 6.8125 -8.265625 6.65625 -8.675781 6.34375 -8.9375 C 6.039062 -9.207031 5.5625 -9.34375 4.90625 -9.34375 L 3.828125 -9.34375 Z M 9.234375 -7.78125 C 9.234375 -6.5625 8.851562 -5.628906 8.09375 -4.984375 C 7.332031 -4.335938 6.25 -4.015625 4.84375 -4.015625 L 3.828125 -4.015625 L 3.828125 0 L 1.421875 0 L 1.421875 -11.3125 L 5.03125 -11.3125 C 6.40625 -11.3125 7.445312 -11.015625 8.15625 -10.421875 C 8.875 -9.828125 9.234375 -8.945312 9.234375 -7.78125 Z M 9.234375 -7.78125 "/></g></g></g><g fill="#ffffff" fill-opacity="1"><g transform="translate(244.42014, 237.010108)"><g><path d="M 7.9375 0 L 1.421875 0 L 1.421875 -11.3125 L 7.9375 -11.3125 L 7.9375 -9.34375 L 3.828125 -9.34375 L 3.828125 -6.859375 L 7.65625 -6.859375 L 7.65625 -4.890625 L 3.828125 -4.890625 L 3.828125 -1.984375 L 7.9375 -1.984375 Z M 7.9375 0 "/></g></g></g><g fill="#ffffff" fill-opacity="1"><g transform="translate(257.889777, 237.010108)"><g><path d="M 3.828125 -6.296875 L 4.59375 -6.296875 C 5.351562 -6.296875 5.910156 -6.421875 6.265625 -6.671875 C 6.628906 -6.921875 6.8125 -7.316406 6.8125 -7.859375 C 6.8125 -8.398438 6.625 -8.78125 6.25 -9 C 5.882812 -9.226562 5.316406 -9.34375 4.546875 -9.34375 L 3.828125 -9.34375 Z M 3.828125 -4.34375 L 3.828125 0 L 1.421875 0 L 1.421875 -11.3125 L 4.71875 -11.3125 C 6.257812 -11.3125 7.394531 -11.03125 8.125 -10.46875 C 8.863281 -9.90625 9.234375 -9.054688 9.234375 -7.921875 C 9.234375 -7.253906 9.050781 -6.660156 8.6875 -6.140625 C 8.320312 -5.628906 7.800781 -5.222656 7.125 -4.921875 C 8.832031 -2.378906 9.941406 -0.738281 10.453125 0 L 7.796875 0 L 5.09375 -4.34375 Z M 3.828125 -4.34375 "/></g></g></g><g fill="#ffffff" fill-opacity="1"><g transform="translate(142.11877, 205.144995)"><g><path d="M 7.671875 -3.375 L 0.546875 -3.375 L 0.546875 -4.234375 C 1.328125 -4.234375 1.847656 -4.367188 2.109375 -4.640625 C 2.378906 -4.921875 2.515625 -5.375 2.515625 -6 L 2.515625 -14.953125 C 2.515625 -16.128906 1.972656 -16.71875 0.890625 -16.71875 L 0.515625 -16.71875 L 0.515625 -17.578125 L 8.625 -17.578125 C 10.257812 -17.578125 11.554688 -17.222656 12.515625 -16.515625 C 13.484375 -15.816406 13.96875 -14.878906 13.96875 -13.703125 C 13.96875 -12.503906 13.484375 -11.546875 12.515625 -10.828125 C 11.554688 -10.109375 10.226562 -9.75 8.53125 -9.75 C 7.832031 -9.75 7.378906 -9.785156 7.171875 -9.859375 C 6.960938 -9.941406 6.859375 -10.113281 6.859375 -10.375 C 6.859375 -10.613281 6.945312 -10.738281 7.125 -10.75 C 7.300781 -10.757812 7.578125 -10.765625 7.953125 -10.765625 C 8.710938 -10.765625 9.335938 -10.984375 9.828125 -11.421875 C 10.328125 -11.867188 10.578125 -12.566406 10.578125 -13.515625 C 10.578125 -14.535156 10.28125 -15.320312 9.6875 -15.875 C 9.101562 -16.4375 8.328125 -16.71875 7.359375 -16.71875 L 5.609375 -16.71875 L 5.609375 -6.03125 C 5.609375 -5.351562 5.75 -4.882812 6.03125 -4.625 C 6.320312 -4.363281 6.867188 -4.234375 7.671875 -4.234375 Z M 7.671875 -3.375 "/></g></g></g><g fill="#ffffff" fill-opacity="1"><g transform="translate(158.312459, 205.144995)"><g><path d="M 12.71875 -3.375 C 12.457031 -3.375 12.171875 -3.5 11.859375 -3.75 C 11.554688 -4.007812 11.203125 -4.390625 10.796875 -4.890625 L 9.171875 -7.015625 C 8.410156 -8.054688 7.832031 -8.828125 7.4375 -9.328125 C 7.28125 -9.503906 7.128906 -9.632812 6.984375 -9.71875 C 6.847656 -9.8125 6.660156 -9.859375 6.421875 -9.859375 L 5.671875 -9.859375 L 5.671875 -6.078125 C 5.671875 -5.441406 5.789062 -4.972656 6.03125 -4.671875 C 6.269531 -4.378906 6.789062 -4.234375 7.59375 -4.234375 L 7.59375 -3.375 L 0.59375 -3.375 L 0.59375 -4.234375 C 1.40625 -4.234375 1.941406 -4.375 2.203125 -4.65625 C 2.460938 -4.945312 2.59375 -5.40625 2.59375 -6.03125 L 2.59375 -14.96875 C 2.59375 -16.132812 2.03125 -16.71875 0.90625 -16.71875 L 0.59375 -16.71875 L 0.59375 -17.578125 L 9.359375 -17.578125 C 10.691406 -17.578125 11.796875 -17.242188 12.671875 -16.578125 C 13.546875 -15.910156 13.984375 -15.03125 13.984375 -13.9375 C 13.984375 -13.03125 13.632812 -12.253906 12.9375 -11.609375 C 12.25 -10.960938 11.359375 -10.539062 10.265625 -10.34375 L 10.296875 -10.328125 C 10.734375 -9.835938 11.390625 -9.015625 12.265625 -7.859375 C 13.296875 -6.554688 14.050781 -5.648438 14.53125 -5.140625 C 15.070312 -4.554688 15.53125 -4.265625 15.90625 -4.265625 L 15.90625 -3.453125 C 14.820312 -3.398438 13.757812 -3.375 12.71875 -3.375 Z M 7.078125 -10.765625 C 8.304688 -10.765625 9.207031 -10.992188 9.78125 -11.453125 C 10.351562 -11.910156 10.640625 -12.644531 10.640625 -13.65625 C 10.640625 -15.613281 9.53125 -16.632812 7.3125 -16.71875 L 5.671875 -16.71875 L 5.671875 -10.765625 Z M 7.078125 -10.765625 "/></g></g></g><g fill="#ffffff" fill-opacity="1"><g transform="translate(175.805762, 205.144995)"><g><path d="M 8.78125 -3.359375 C 7.175781 -3.359375 5.800781 -3.6875 4.65625 -4.34375 C 3.507812 -5 2.628906 -5.875 2.015625 -6.96875 C 1.398438 -8.0625 1.09375 -9.25 1.09375 -10.53125 C 1.09375 -12.039062 1.457031 -13.363281 2.1875 -14.5 C 2.914062 -15.632812 3.875 -16.515625 5.0625 -17.140625 C 6.257812 -17.773438 7.5625 -18.09375 8.96875 -18.09375 C 10.1875 -18.09375 11.382812 -17.832031 12.5625 -17.3125 C 13.738281 -16.789062 14.71875 -15.988281 15.5 -14.90625 C 16.28125 -13.820312 16.671875 -12.453125 16.671875 -10.796875 C 16.671875 -9.554688 16.378906 -8.363281 15.796875 -7.21875 C 15.210938 -6.082031 14.332031 -5.15625 13.15625 -4.4375 C 11.988281 -3.71875 10.53125 -3.359375 8.78125 -3.359375 Z M 9.125 -4.234375 C 10.394531 -4.234375 11.394531 -4.753906 12.125 -5.796875 C 12.863281 -6.835938 13.234375 -8.25 13.234375 -10.03125 C 13.234375 -12.195312 12.828125 -13.921875 12.015625 -15.203125 C 11.210938 -16.492188 10.101562 -17.140625 8.6875 -17.140625 C 7.539062 -17.140625 6.5625 -16.648438 5.75 -15.671875 C 4.9375 -14.703125 4.53125 -13.234375 4.53125 -11.265625 C 4.53125 -9.128906 4.941406 -7.421875 5.765625 -6.140625 C 6.585938 -4.867188 7.707031 -4.234375 9.125 -4.234375 Z M 9.125 -4.234375 "/></g></g></g><g fill="#ff7200" fill-opacity="1"><g transform="translate(195.33361, 205.144995)"><g><path d="M 8.609375 -3.359375 L 0.59375 -3.359375 L 0.59375 -4.21875 C 1.394531 -4.21875 1.925781 -4.351562 2.1875 -4.625 C 2.457031 -4.90625 2.59375 -5.359375 2.59375 -5.984375 L 2.59375 -14.84375 C 2.59375 -15.5 2.457031 -15.96875 2.1875 -16.25 C 1.925781 -16.539062 1.394531 -16.6875 0.59375 -16.6875 L 0.59375 -17.546875 L 9.484375 -17.546875 C 11.722656 -17.546875 13.507812 -16.898438 14.84375 -15.609375 C 16.175781 -14.316406 16.84375 -12.660156 16.84375 -10.640625 C 16.84375 -8.554688 16.128906 -6.820312 14.703125 -5.4375 C 13.285156 -4.050781 11.253906 -3.359375 8.609375 -3.359375 Z M 8.234375 -4.21875 C 9.972656 -4.21875 11.285156 -4.734375 12.171875 -5.765625 C 13.054688 -6.796875 13.5 -8.238281 13.5 -10.09375 C 13.5 -12.101562 13.007812 -13.703125 12.03125 -14.890625 C 11.050781 -16.085938 9.5625 -16.6875 7.5625 -16.6875 L 5.6875 -16.6875 L 5.6875 -6.46875 C 5.6875 -5.757812 5.851562 -5.207031 6.1875 -4.8125 C 6.53125 -4.414062 7.210938 -4.21875 8.234375 -4.21875 Z M 8.234375 -4.21875 "/></g></g></g><g fill="#ffffff" fill-opacity="1"><g transform="translate(215.091421, 205.144995)"><g><path d="M 17.3125 -3.375 L 10.375 -3.375 L 10.375 -4.234375 C 11.101562 -4.234375 11.597656 -4.375 11.859375 -4.65625 C 12.128906 -4.945312 12.265625 -5.390625 12.265625 -5.984375 L 12.265625 -10.109375 L 5.6875 -10.109375 L 5.6875 -6.140625 C 5.6875 -5.390625 5.828125 -4.890625 6.109375 -4.640625 C 6.398438 -4.390625 6.90625 -4.253906 7.625 -4.234375 L 7.625 -3.375 L 0.546875 -3.375 L 0.546875 -4.234375 C 1.359375 -4.234375 1.898438 -4.367188 2.171875 -4.640625 C 2.453125 -4.921875 2.59375 -5.394531 2.59375 -6.0625 L 2.59375 -14.953125 C 2.59375 -15.609375 2.445312 -16.066406 2.15625 -16.328125 C 1.875 -16.585938 1.335938 -16.71875 0.546875 -16.71875 L 0.546875 -17.578125 L 7.625 -17.578125 L 7.625 -16.71875 C 6.84375 -16.71875 6.320312 -16.566406 6.0625 -16.265625 C 5.8125 -15.972656 5.6875 -15.523438 5.6875 -14.921875 L 5.6875 -11.203125 L 12.265625 -11.203125 L 12.265625 -15 C 12.265625 -15.550781 12.132812 -15.972656 11.875 -16.265625 C 11.613281 -16.566406 11.085938 -16.71875 10.296875 -16.71875 L 10.296875 -17.578125 L 17.3125 -17.578125 L 17.3125 -16.71875 C 16.601562 -16.71875 16.097656 -16.59375 15.796875 -16.34375 C 15.492188 -16.101562 15.34375 -15.601562 15.34375 -14.84375 L 15.34375 -6.109375 C 15.34375 -5.378906 15.5 -4.882812 15.8125 -4.625 C 16.125 -4.363281 16.625 -4.234375 17.3125 -4.234375 Z M 17.3125 -3.375 "/></g></g></g><g fill="#ffffff" fill-opacity="1"><g transform="translate(234.690093, 205.144995)"><g><path d="M 15.75 -3.375 L 9.234375 -3.375 L 9.234375 -4.234375 C 10.273438 -4.273438 10.796875 -4.628906 10.796875 -5.296875 C 10.796875 -5.597656 10.707031 -5.945312 10.53125 -6.34375 L 9.546875 -8.8125 L 4.453125 -8.8125 L 3.75 -6.890625 C 3.570312 -6.390625 3.484375 -5.984375 3.484375 -5.671875 C 3.484375 -4.835938 3.984375 -4.359375 4.984375 -4.234375 L 4.984375 -3.375 L 0.125 -3.375 L 0.125 -4.234375 C 0.894531 -4.335938 1.453125 -4.675781 1.796875 -5.25 C 2.015625 -5.632812 2.273438 -6.21875 2.578125 -7 L 6.421875 -16.671875 L 6 -17.578125 L 9.25 -17.578125 L 13.828125 -6.078125 C 14.296875 -4.847656 14.9375 -4.234375 15.75 -4.234375 Z M 9.09375 -9.9375 L 6.859375 -15.46875 L 4.859375 -9.9375 Z M 9.09375 -9.9375 "/></g></g></g><g fill="#ffffff" fill-opacity="1"><g transform="translate(252.313355, 205.144995)"><g><path d="M 14.890625 -3.21875 L 13.546875 -3.21875 C 13.054688 -3.832031 12.492188 -4.484375 11.859375 -5.171875 L 3.53125 -14.359375 L 3.53125 -7.4375 C 3.53125 -6.257812 3.722656 -5.429688 4.109375 -4.953125 C 4.503906 -4.472656 5.144531 -4.234375 6.03125 -4.234375 L 6.03125 -3.375 L 0.34375 -3.375 L 0.34375 -4.234375 L 0.5 -4.234375 C 1.9375 -4.234375 2.65625 -5.109375 2.65625 -6.859375 L 2.65625 -15.359375 C 1.90625 -16.160156 1.109375 -16.613281 0.265625 -16.71875 L 0.265625 -17.578125 L 4.734375 -17.578125 L 13.59375 -7.90625 L 13.59375 -13.421875 C 13.59375 -14.578125 13.429688 -15.414062 13.109375 -15.9375 C 12.796875 -16.457031 12.132812 -16.71875 11.125 -16.71875 L 11.125 -17.578125 L 16.59375 -17.578125 L 16.59375 -16.71875 C 15.789062 -16.6875 15.25 -16.453125 14.96875 -16.015625 C 14.695312 -15.578125 14.5625 -14.84375 14.5625 -13.8125 L 14.5625 -6.46875 C 14.59375 -5.601562 14.671875 -4.84375 14.796875 -4.1875 Z M 14.890625 -3.21875 "/></g></g></g></svg>